<svg width="257" height="60" viewBox="0 0 257 60" fill="none" xmlns="http://www.w3.org/2000/svg">
<g clip-path="url(#clip0_1128_3213)">
<path d="M26.1017 57.4046L25.2157 57.04C24.8984 56.9118 17.3263 53.7662 7.89782 44.12C6.42119 42.6113 1.93225 38.0177 3.93371 33.8443C5.18758 31.2303 8.50535 29.779 14.0727 29.4077C16.4466 29.2625 18.828 29.2924 21.1976 29.4972C21.7514 29.5555 22.2596 29.8304 22.6115 30.262C22.9634 30.6935 23.1304 31.2467 23.0761 31.8009C23.0217 32.3551 22.7505 32.8653 22.3214 33.2203C21.8924 33.5753 21.3404 33.7462 20.7858 33.6958C18.6304 33.5144 16.4646 33.489 14.3055 33.6199C10.0427 33.9203 8.10033 34.9109 7.7375 35.6754C7.39999 36.3723 8.03451 38.2303 10.9135 41.1769C15.4902 45.8582 19.5674 48.8604 22.1831 50.5564C23.3286 51.3052 24.5114 51.9952 25.727 52.6237C26.1169 52.2262 26.4768 51.8003 26.8037 51.3495C27.1345 50.8982 27.631 50.5967 28.184 50.5114C28.7371 50.4261 29.3014 50.564 29.7527 50.8947C30.2041 51.2255 30.5056 51.722 30.5909 52.2751C30.6762 52.8281 30.5383 53.3924 30.2075 53.8438C28.5453 56.1085 27.2087 56.851 26.9573 56.9776L26.1017 57.4046Z" fill="#F15A29"/>
<path d="M33.5169 58.7359C33.0902 58.7365 32.6734 58.6076 32.3215 58.3664C31.9696 58.1251 31.6991 57.7829 31.5458 57.3847C31.3924 56.9866 31.3634 56.5513 31.4625 56.1364C31.5616 55.7214 31.7842 55.3462 32.101 55.0604C32.2596 54.9169 48.0654 40.4544 52.5206 22.4396C53.5568 18.2443 52.7569 15.4041 50.1395 14.0017C48.2241 12.9723 45.4396 12.7597 42.5015 13.4178C39.5162 14.0928 36.8059 15.5543 35.0762 17.4444C32.074 20.7098 30.0287 24.6503 29.0009 29.1561C28.9705 29.2894 28.9452 29.3991 28.925 29.4801C28.8633 29.7544 28.7473 30.0136 28.584 30.2424C28.4207 30.4712 28.2133 30.6651 27.974 30.8127C27.7347 30.9602 27.4683 31.0584 27.1905 31.1015C26.9127 31.1447 26.6291 31.1318 26.3563 31.0638C26.0836 30.9957 25.8272 30.8738 25.6022 30.7053C25.3772 30.5367 25.1882 30.3249 25.0462 30.0822C24.9042 29.8396 24.8122 29.571 24.7755 29.2923C24.7389 29.0135 24.7583 28.7303 24.8326 28.4592C24.8478 28.3967 24.8664 28.3157 24.89 28.2128C26.0882 22.9813 28.4727 18.3995 31.9778 14.589C34.283 12.0813 37.7881 10.154 41.597 9.30182C45.5678 8.41247 49.3159 8.76179 52.1527 10.284C54.1909 11.3518 55.756 13.1432 56.5404 15.3062C57.3724 17.5946 57.4045 20.3369 56.6332 23.4538C55.2545 29.0363 51.9384 37.8522 43.9764 48.1599C39.2192 54.2959 35.1015 58.0356 34.9327 58.1925C34.5445 58.5429 34.0399 58.7366 33.5169 58.7359Z" fill="#22BFCF"/>
<path d="M6.63554 26.8829C6.63521 27.5391 6.4403 28.1805 6.07546 28.7259C5.71062 29.2713 5.19224 29.6963 4.58587 29.9471C3.9795 30.1979 3.31237 30.2633 2.66885 30.1349C2.02533 30.0066 1.43432 29.6903 0.970561 29.2261C0.506799 28.7618 0.191112 28.1705 0.0634227 27.5269C-0.0642668 26.8832 0.00177538 26.2161 0.253198 25.61C0.50462 25.0039 0.930131 24.486 1.47592 24.1217C2.02171 23.7574 2.66327 23.5631 3.31946 23.5635C3.75522 23.5635 4.1867 23.6494 4.58925 23.8162C4.99179 23.9831 5.35751 24.2276 5.66548 24.5359C5.97345 24.8442 6.21764 25.2102 6.38409 25.6129C6.55054 26.0156 6.63598 26.4472 6.63554 26.8829Z" fill="#77A43A"/>
<path d="M51.1537 3.31777C51.154 3.97444 50.9596 4.61646 50.595 5.1626C50.2304 5.70874 49.7119 6.13446 49.1053 6.38591C48.4987 6.63736 47.8311 6.70324 47.1871 6.57522C46.543 6.44719 45.9514 6.13101 45.487 5.66667C45.0227 5.20233 44.7065 4.61071 44.5785 3.96664C44.4504 3.32257 44.5163 2.655 44.7678 2.04838C45.0192 1.44176 45.445 0.923345 45.9911 0.558727C46.5372 0.194108 47.1793 -0.00033333 47.8359 4.28952e-07C48.7159 4.28952e-07 49.5598 0.34955 50.182 0.971753C50.8042 1.59396 51.1537 2.43784 51.1537 3.31777Z" fill="#EE2A7B"/>
<path d="M76.1264 40.853V38.0381H65.9183V59.3538H68.7045V49.1271H76.1264V46.3123H68.7045V40.853H76.1264Z" fill="#8D488D"/>
<path d="M99.68 40.8086C97.6195 38.7835 94.97 37.771 91.8041 37.771C88.6382 37.771 85.9668 38.8072 83.9231 40.8508C81.8795 42.8945 80.872 45.517 80.872 48.7048C80.872 51.8926 81.9081 54.5438 83.9501 56.5857C85.9921 58.6277 88.6179 59.6369 91.8041 59.6369C94.9902 59.6369 97.6431 58.6007 99.6834 56.5604C101.724 54.5202 102.773 51.8842 102.773 48.6963C102.773 45.5085 101.729 42.8641 99.68 40.8086ZM97.7106 54.5792C96.1732 56.0829 94.2443 56.8136 91.8041 56.8136C89.3638 56.8136 87.4755 56.0677 85.9415 54.532C84.4074 52.9963 83.6869 51.1062 83.6869 48.6963C83.6869 46.2865 84.4328 44.3677 85.9685 42.832C87.5041 41.2963 89.4128 40.5504 91.8041 40.5504C94.2325 40.5504 96.1597 41.2963 97.6954 42.832C99.2311 44.3677 99.95 46.2679 99.95 48.6963C99.95 51.1248 99.2125 53.0688 97.7106 54.5792Z" fill="#EE2A7B"/>
<path d="M118.836 38.0381V53.6161C118.852 54.0547 118.763 54.491 118.575 54.8877C118.387 55.2843 118.106 55.6297 117.756 55.8943C117.04 56.4579 116.168 56.7381 115.087 56.7381C114.007 56.7381 113.116 56.4731 112.418 55.9264C111.719 55.3796 111.368 54.6235 111.368 53.6228V38.0381H108.582V53.6161C108.582 55.4724 109.247 56.9591 110.57 58.0662C111.781 59.0484 113.302 59.5462 115.087 59.5462C116.932 59.5462 118.463 59.0551 119.61 58.0881C120.96 56.9726 121.649 55.4673 121.649 53.6161V38.0381H118.836Z" fill="#77A43A"/>
<path d="M163.733 41.3103C161.923 39.1401 159.542 38.0381 156.646 38.0381H149.266V59.3538H156.652C159.558 59.3538 161.95 58.2518 163.764 56.0765C165.423 54.0616 166.265 51.569 166.265 48.6681C166.265 45.7672 165.413 43.3067 163.733 41.3103ZM156.646 56.5389H152.05V40.826H156.651C158.73 40.826 160.363 41.5871 161.632 43.1565C162.854 44.6466 163.448 46.4489 163.448 48.6681C163.448 51.1556 162.746 53.0744 161.3 54.5358C159.97 55.8842 158.45 56.5339 156.652 56.5339L156.646 56.5389Z" fill="#FFC541"/>
<path d="M188.024 38.0381V40.853H192.368V59.3538H195.183V40.853H199.527V38.0381H188.024Z" fill="#EF5A89"/>
<path d="M206.647 38.0381H203.859V59.3538H206.647V38.0381Z" fill="#77A43A"/>
<path d="M230.254 40.8086C228.194 38.7835 225.544 37.771 222.378 37.771C219.212 37.771 216.539 38.8072 214.497 40.8508C212.455 42.8945 211.453 45.5085 211.453 48.6963C211.453 51.8842 212.489 54.5354 214.531 56.5773C216.573 58.6193 219.199 59.6284 222.385 59.6284C225.571 59.6284 228.224 58.5923 230.264 56.552C232.305 54.5117 233.346 51.8842 233.346 48.6963C233.346 45.5085 232.303 42.8641 230.254 40.8086ZM222.378 56.8136C219.968 56.8136 218.05 56.0677 216.516 54.532C214.982 52.9963 214.261 51.1062 214.261 48.6963C214.261 46.2865 215.007 44.3677 216.543 42.832C218.078 41.2963 219.987 40.5504 222.378 40.5504C224.807 40.5504 226.734 41.2963 228.27 42.832C229.805 44.3677 230.523 46.2679 230.523 48.6963C230.523 51.1248 229.785 53.0688 228.275 54.5792C226.739 56.0829 224.81 56.8136 222.378 56.8136Z" fill="#F15A29"/>
<path d="M76.82 30.2295H71.5632L64.6729 9.02344H69.4841L74.2093 23.9332H74.2684L79.051 9.02344H83.8623L76.82 30.2295Z" fill="#42C2D0"/>
<path d="M84.1846 9.02344H88.8474V30.2295H84.1846V9.02344Z" fill="#42C2D0"/>
<path d="M95.1151 15.5881V30.2599H91.0447V8.96436H96.3909L105.867 22.2118V8.96436H109.816V30.2599H105.867L95.1151 15.5881Z" fill="#42C2D0"/>
<path d="M109.964 30.2294L119.583 9.05371H124.276L133.75 30.2294H129.24L127.16 25.5379H116.443L114.215 30.2294H109.964ZM121.993 13.033L118.429 21.2312H125.468L122.022 13.033H121.993Z" fill="#42C2D0"/>
<path d="M144.088 30.2905C142.193 30.2999 140.328 29.808 138.684 28.8647C137.04 27.9214 135.674 26.5601 134.725 24.9189C133.777 23.2777 133.279 21.4148 133.282 19.5192C133.285 17.6235 133.789 15.7623 134.744 14.1243C135.698 12.4864 137.068 11.1297 138.716 10.192C140.363 9.25426 142.229 8.7687 144.125 8.78456C146.02 8.80041 147.878 9.3171 149.51 10.2823C151.141 11.2474 152.489 12.6268 153.416 14.2805C151.603 15.2323 151.455 15.32 149.435 16.3056C148.889 15.3727 148.108 14.5993 147.17 14.0624C146.232 13.5256 145.169 13.2441 144.088 13.246C142.436 13.273 140.861 13.9484 139.702 15.1264C138.543 16.3044 137.893 17.8907 137.893 19.5432C137.893 21.1957 138.543 22.7819 139.702 23.96C140.861 25.138 142.436 25.8133 144.088 25.8404C145.223 25.85 146.339 25.5474 147.313 24.9659C148.287 24.3843 149.083 23.5461 149.613 22.5428C151.639 23.5824 151.693 23.7005 153.593 24.5679C152.686 26.302 151.32 27.7532 149.643 28.7625C147.967 29.7719 146.045 30.3005 144.088 30.2905Z" fill="#42C2D0"/>
<path d="M152.968 30.2294L162.588 9.05371H167.281L176.755 30.2294H172.241L170.161 25.5379H159.444L157.216 30.2294H152.968ZM164.997 13.033L161.433 21.2312H168.472L165.026 13.033H164.997Z" fill="#42C2D0"/>
<path d="M177.47 9.02344H187.034C192.35 9.02344 194.37 12.38 194.37 15.826C194.37 19.2721 192.345 22.627 187.034 22.627H182.14V30.2211H177.477L177.47 9.02344ZM182.133 19.0038H185.756C187.896 19.0038 189.855 18.5279 189.855 15.826C189.855 13.1242 187.896 12.6467 185.756 12.6467H182.133V19.0038Z" fill="#42C2D0"/>
<path d="M195.796 9.02344H200.458V30.2295H195.796V9.02344Z" fill="#42C2D0"/>
<path d="M208.447 12.9436H201.697V9.05371H219.785V12.9739H213.102V30.2294H208.439L208.447 12.9436Z" fill="#42C2D0"/>
<path d="M216.764 30.2294L226.383 9.05371H231.076L240.55 30.2294H236.036L233.957 25.5379H223.234L221.006 30.2294H216.764ZM228.791 13.033L225.227 21.2312H232.268L228.822 13.033H228.791Z" fill="#42C2D0"/>
<path d="M240.817 30.0812V8.94434H245.39V26.1576H256.26V30.0778L240.817 30.0812Z" fill="#42C2D0"/>
<path d="M178.829 38.0446C178.392 37.1266 177.494 37.3055 177.187 38.0446L168.946 59.3587H171.854L174.136 53.4758H181.92L184.173 59.3587H187.115L178.829 38.0446ZM175.228 50.6559L178.01 43.4499L180.795 50.6559H175.228Z" fill="#8D488D"/>
<path d="M256.65 59.3504V38.0381H253.835V53.6363L240.277 37.7394C239.676 37.0795 239.183 37.5402 239.183 38.0448V59.3538H241.969V44.1184L255.33 59.5715C256.051 60.4676 256.628 59.7402 256.65 59.3504Z" fill="#FFC541"/>
<path d="M144.136 59.3504V38.0381H141.321V53.6363L127.764 37.7394C127.162 37.0795 126.669 37.5402 126.669 38.0448V59.3538H129.455V44.1184L142.809 59.5715C143.538 60.4676 144.119 59.7402 144.136 59.3504Z" fill="#F15A29"/>
</g>
<defs>
<clipPath id="clip0_1128_3213">
<rect width="256.65" height="60" fill="white"/>
</clipPath>
</defs>
</svg>
